<?xml version="1.0" standalone="no"?>
<!DOCTYPE svg PUBLIC "-//W3C//DTD SVG 20010904//EN"
 "http://www.w3.org/TR/2001/REC-SVG-20010904/DTD/svg10.dtd">
<svg version="1.0" xmlns="http://www.w3.org/2000/svg"
 width="256.000000pt" height="256.000000pt" viewBox="0 0 256.000000 256.000000"
 preserveAspectRatio="xMidYMid meet">
<metadata>
Created by potrace 1.14, written by Peter Selinger 2001-2017
</metadata>
<g transform="translate(0.000000,256.000000) scale(0.100000,-0.100000)"
fill="#000000" stroke="none">
<path d="M1125 2420 c-140 -22 -357 -94 -406 -136 -8 -8 -18 -14 -22 -14 -22
0 -147 -99 -228 -179 -113 -113 -158 -176 -226 -315 -68 -138 -99 -266 -110
-448 -10 -186 27 -365 112 -543 338 -706 1261 -875 1829 -336 164 157 284 371
333 599 17 83 24 306 11 402 -49 360 -297 698 -634 863 -63 31 -173 72 -220
81 -10 3 -39 9 -64 15 -62 15 -302 22 -375 11z"/>
</g>
</svg>
